<?xml version="1.0" encoding="UTF-8"?>
<svg version="1.1" xmlns="http://www.w3.org/2000/svg" width="32" height="32">
<path d="M0 0 C9.24 0 18.48 0 28 0 C28 9.9 28 19.8 28 30 C20.74 30 13.48 30 6 30 C6 30.66 6 31.32 6 32 C4.68 32 3.36 32 2 32 C2 31.34 2 30.68 2 30 C1.34 30 0.68 30 0 30 C0 20.1 0 10.2 0 0 Z " fill="#838186" transform="translate(2,0)"/>
<path d="M0 0 C4.62 0 9.24 0 14 0 C14 9.9 14 19.8 14 30 C9.71 30 5.42 30 1 30 C0.67 25.05 0.34 20.1 0 15 C0.33 15.66 0.66 16.32 1 17 C1.66 17 2.32 17 3 17 C2.34 16.01 1.68 15.02 1 14 C0.67 14 0.34 14 0 14 C0 9.38 0 4.76 0 0 Z " fill="#AB9997" transform="translate(16,0)"/>
<path d="M0 0 C0.99 0 1.98 0 3 0 C3 9.9 3 19.8 3 30 C3.99 30 4.98 30 6 30 C6 30.66 6 31.32 6 32 C4.68 32 3.36 32 2 32 C2 31.34 2 30.68 2 30 C1.34 30 0.68 30 0 30 C0 20.1 0 10.2 0 0 Z " fill="#160407" transform="translate(2,0)"/>
<path d="M0 0 C2.31 0 4.62 0 7 0 C6.67 1.32 6.34 2.64 6 4 C6.66 4 7.32 4 8 4 C8.33 5.32 8.66 6.64 9 8 C5.846632 8.70074844 3.27275026 9 0 9 C0.33 7.68 0.66 6.36 1 5 C1 5.66 1 6.32 1 7 C1.66 7 2.32 7 3 7 C2.34 6.01 1.68 5.02 1 4 C0.375 1.8125 0.375 1.8125 0 0 Z " fill="#DBDADD" transform="translate(16,10)"/>
<path d="M0 0 C2.31 0 4.62 0 7 0 C6.01 0.495 6.01 0.495 5 1 C5.33 1.99 5.66 2.98 6 4 C5.34 4 4.68 4 4 4 C4 3.34 4 2.68 4 2 C3.34 2 2.68 2 2 2 C2.33 2.66 2.66 3.32 3 4 C5.02463255 4.65213292 5.02463255 4.65213292 7 5 C6.67 6.32 6.34 7.64 6 9 C3.525 8.01 3.525 8.01 1 7 C0.67 7.66 0.34 8.32 0 9 C0 6.03 0 3.06 0 0 Z " fill="#CACACC" transform="translate(8,10)"/>
<path d="M0 0 C3 0 3 0 4.6875 1.3125 C6 3 6 3 6 6 C5.34 6 4.68 6 4 6 C3.67 6.66 3.34 7.32 3 8 C2.34 7.67 1.68 7.34 1 7 C1.33 6.01 1.66 5.02 2 4 C0.35 3.67 -1.3 3.34 -3 3 C-3 2.34 -3 1.68 -3 1 C-2.34 1 -1.68 1 -1 1 C-0.67 0.67 -0.34 0.34 0 0 Z " fill="#A4A3A7" transform="translate(13,11)"/>
<path d="M0 0 C2.31 0 4.62 0 7 0 C6.01 0.495 6.01 0.495 5 1 C5.33 1.99 5.66 2.98 6 4 C5.34 4 4.68 4 4 4 C4 3.34 4 2.68 4 2 C2.02 2.99 2.02 2.99 0 4 C0 2.68 0 1.36 0 0 Z " fill="#DFDFE0" transform="translate(8,10)"/>
</svg>
